<svg stroke="currentColor" fill="none" stroke-width="0" xmlns="http://www.w3.org/2000/svg" viewBox="0 0 20 20" class="absolute left-0 top-1/2 -translate-y-1/2 text-gray-300"><path d="M16.4237 6.37515C16.5547 6.2442 16.7804 6.23085 16.913 6.37561C17.6903 7.22337 18.1205 7.8511 18.2621 8.54625C18.3436 8.94625 18.3552 9.35334 18.2964 9.74934C18.1374 10.8195 17.2703 11.6866 15.5361 13.4208L13.4209 15.536C11.6867 17.2702 10.8196 18.1373 9.74946 18.2963C9.35346 18.3551 8.94637 18.3435 8.54637 18.262C7.85129 18.1203 7.22363 17.6903 6.37602 16.9132C6.23107 16.7803 6.24447 16.5544 6.37557 16.4233C7.10573 15.6932 7.07103 14.4747 6.29809 13.7017C5.52514 12.9288 4.30664 12.8941 3.57648 13.6243C3.44538 13.7553 3.21947 13.7688 3.08658 13.6238C2.30951 12.7762 1.87942 12.1485 1.73778 11.4534C1.65628 11.0534 1.64469 10.6463 1.70353 10.2503C1.86257 9.18017 2.72963 8.31307 4.46377 6.57894L6.57906 4.46365C8.31319 2.72951 9.18029 1.86245 10.2505 1.7034C10.6465 1.64457 11.0535 1.65616 11.4535 1.73766C12.1487 1.87932 12.7765 2.30948 13.6242 3.08673C13.769 3.21946 13.7556 3.4451 13.6246 3.57606C12.8945 4.30621 12.9292 5.52471 13.7021 6.29766C14.475 7.07061 15.6936 7.1053 16.4237 6.37515Z" stroke="currentColor" stroke-width="1.25" stroke-linejoin="round"></path><path d="M15.8333 12.4998L7.5 4.1665" stroke="currentColor" stroke-width="1.25" stroke-linecap="round" stroke-linejoin="round"></path></svg>